<svg width="1536" height="112" viewBox="0 0 1536 112" fill="none" xmlns="http://www.w3.org/2000/svg">
<rect width="1536" height="112" fill="#FBFBF9"/>
<path d="M83.2084 46.0288C80.1119 46.0288 77.5166 47.0304 75.4802 49.008L75.8207 47.0912C75.8399 46.9856 75.811 46.8768 75.7404 46.7968C75.6697 46.7136 75.5701 46.6688 75.4609 46.6688H70.145C69.9683 46.6688 69.8174 46.7936 69.7885 46.9664L65.4297 71.4912C65.4104 71.5968 65.4394 71.7056 65.51 71.7856C65.5807 71.8688 65.6803 71.9136 65.7895 71.9136H71.1054C71.2821 71.9136 71.433 71.7888 71.4619 71.616L73.8003 58.4704C74.5648 54.1728 77.1697 51.7056 80.9503 51.7056C82.4985 51.7056 83.6934 52.1536 84.4064 52.9984C85.1613 53.8944 85.399 55.2672 85.097 56.9696L82.5178 71.488C82.4985 71.5936 82.5274 71.7024 82.5981 71.7824C82.6687 71.8656 82.7683 71.9104 82.8775 71.9104H88.1967C88.3733 71.9104 88.5243 71.7856 88.5532 71.6128L91.2288 56.5536C91.8134 53.2672 91.2834 50.5312 89.6999 48.6464C88.2545 46.9312 86.0125 46.0224 83.2148 46.0224L83.2084 46.0288ZM62.8504 43.9712C63.8333 43.9712 64.7648 43.5808 65.4779 42.8704C66.2102 42.1408 66.6182 41.2 66.6246 40.2208C66.631 39.2448 66.2424 38.3136 65.5325 37.6064C64.8194 36.8704 63.8719 36.4672 62.8569 36.4672C61.8419 36.4672 60.8943 36.8736 60.1877 37.6032C58.7069 39.0784 58.7037 41.3408 60.1909 42.8768C60.9264 43.584 61.8708 43.9712 62.8504 43.9712ZM64.5014 46.6688H59.1855C59.0089 46.6688 58.8579 46.7936 58.829 46.9664L54.4702 71.4912C54.451 71.5968 54.4799 71.7056 54.5505 71.7856C54.6212 71.8688 54.7208 71.9136 54.83 71.9136H60.1459C60.3226 71.9136 60.4735 71.7888 60.5024 71.616L64.8612 47.0912C64.8805 46.9856 64.8515 46.8768 64.7809 46.7968C64.7102 46.7136 64.6106 46.6688 64.5014 46.6688ZM125.174 46.032C121.73 46.032 118.958 47.1936 116.922 49.488V37.2192C116.922 37.0176 116.758 36.8576 116.559 36.8576H111.24C111.037 36.8576 110.877 37.0208 110.877 37.2192V71.5552C110.877 71.7568 111.041 71.9168 111.24 71.9168H116.559C116.761 71.9168 116.922 71.7536 116.922 71.5552V69.0624C118.949 71.3792 121.721 72.5536 125.174 72.5536C128.627 72.5536 131.611 71.2992 134.103 68.7136C136.554 66.1728 137.797 63.0016 137.797 59.2896C137.797 55.5776 136.554 52.4096 134.103 49.8656C131.611 47.2832 128.691 46.0256 125.174 46.0256V46.032ZM129.645 64.6816C128.244 66.0768 126.458 66.784 124.339 66.784C122.219 66.784 120.429 66.0768 119.035 64.688C117.613 63.2256 116.922 61.4624 116.922 59.2992C116.922 57.136 117.632 55.3568 119.035 53.9584C120.42 52.5344 122.203 51.8112 124.339 51.8112C126.475 51.8112 128.257 52.5344 129.645 53.9616C131.045 55.3568 131.755 57.152 131.755 59.2992C131.755 61.4464 131.065 63.2256 129.645 64.6848V64.6816ZM166.978 46.672H161.662C161.46 46.672 161.299 46.8352 161.299 47.0336V49.488C159.263 47.1936 156.491 46.032 153.048 46.032C149.604 46.032 146.611 47.2864 144.121 49.872C141.667 52.416 140.424 55.584 140.424 59.296C140.424 63.008 141.667 66.176 144.121 68.72C146.614 71.3024 149.534 72.56 153.048 72.56C156.562 72.56 159.273 71.3856 161.299 69.0688V71.5616C161.299 71.7632 161.463 71.9232 161.662 71.9232H166.978C167.181 71.9232 167.341 71.76 167.341 71.5616V47.0304C167.341 46.8288 167.178 46.6688 166.978 46.6688V46.672ZM159.189 64.6816C157.789 66.0768 156.003 66.784 153.883 66.784C151.763 66.784 149.974 66.0768 148.58 64.688C147.157 63.2256 146.466 61.4624 146.466 59.2992C146.466 57.136 147.176 55.3568 148.58 53.9584C149.964 52.5344 151.747 51.8112 153.883 51.8112C156.019 51.8112 157.802 52.5344 159.189 53.9616C160.59 55.3568 161.299 57.152 161.299 59.2992C161.299 61.4464 160.609 63.2256 159.189 64.6848V64.6816ZM185.383 46.032C182.255 46.032 179.814 47.0528 178.115 49.072V47.0336C178.115 46.832 177.951 46.672 177.752 46.672H172.436C172.233 46.672 172.073 46.8352 172.073 47.0336V71.5584C172.073 71.76 172.236 71.92 172.436 71.92H177.752C177.954 71.92 178.115 71.7568 178.115 71.5584V58.4128C178.115 54.0928 180.206 51.712 184.005 51.712C187.278 51.712 189.157 53.6544 189.157 57.04V71.5584C189.157 71.76 189.321 71.92 189.52 71.92H194.84C195.042 71.92 195.203 71.7568 195.203 71.5584V56.4992C195.203 50.1408 191.348 46.032 185.387 46.032H185.383ZM72.1204 24C59.465 24 51.9616 26.096 47.0311 31.0048C42.1007 35.9168 40 43.3888 40 56C40 68.6112 42.1039 76.0832 47.0311 80.9952C51.9616 85.9072 59.4617 88 72.1204 88C84.779 88 92.2792 85.904 97.2096 80.9952C102.14 76.0864 104.241 68.6112 104.241 56C104.241 43.3888 102.137 35.9168 97.2096 31.0048C92.2792 26.096 84.779 24 72.1204 24ZM92.9344 76.736C89.2952 80.3616 82.8775 81.9776 72.1204 81.9776C61.3633 81.9776 54.9456 80.3616 51.3064 76.736C47.6671 73.1104 46.0451 66.7168 46.0451 56C46.0451 45.2832 47.6671 38.8896 51.3064 35.264C54.9456 31.6384 61.3633 30.0224 72.1204 30.0224C82.8775 30.0224 89.2952 31.6384 92.9344 35.264C96.5737 38.8896 98.1957 45.2832 98.1957 56C98.1957 66.7168 96.5737 73.1104 92.9344 76.736ZM221.904 71.3152L210.897 59.0496L221.512 47.2736C221.609 47.168 221.631 47.0144 221.573 46.8832C221.516 46.752 221.384 46.6688 221.243 46.6688H214.745C214.639 46.6688 214.539 46.7136 214.472 46.7936L205.555 56.912V37.2192C205.555 37.0176 205.391 36.8576 205.192 36.8576H199.876C199.674 36.8576 199.513 37.0208 199.513 37.2192V71.5552C199.513 71.7568 199.677 71.9168 199.876 71.9168H205.192C205.394 71.9168 205.555 71.7536 205.555 71.5552V61.1776L215.014 71.7952C215.082 71.872 215.181 71.9168 215.287 71.9168H221.638C221.782 71.9168 221.911 71.8336 221.968 71.7024C222.026 71.5712 222.004 71.4208 221.907 71.312L221.904 71.3152Z" fill="#21093A"/>
</svg>
