<svg width="360" height="72" viewBox="0 0 360 72" fill="none" xmlns="http://www.w3.org/2000/svg">
<rect width="360" height="72" fill="#FBFBF9"/>
<path d="M43.0052 29.768C41.07 29.768 39.4479 30.394 38.1751 31.63L38.3879 30.432C38.4 30.366 38.3819 30.298 38.3377 30.248C38.2936 30.196 38.2313 30.168 38.1631 30.168H34.8406C34.7302 30.168 34.6359 30.246 34.6178 30.354L31.8936 45.682C31.8815 45.748 31.8996 45.816 31.9438 45.866C31.9879 45.918 32.0502 45.946 32.1184 45.946H35.4409C35.5513 45.946 35.6456 45.868 35.6637 45.76L37.1252 37.544C37.603 34.858 39.2311 33.316 41.5939 33.316C42.5616 33.316 43.3084 33.596 43.754 34.124C44.2258 34.684 44.3744 35.542 44.1856 36.606L42.5736 45.68C42.5616 45.746 42.5796 45.814 42.6238 45.864C42.668 45.916 42.7302 45.944 42.7984 45.944H46.1229C46.2333 45.944 46.3277 45.866 46.3457 45.758L48.018 36.346C48.3834 34.292 48.0521 32.582 47.0624 31.404C46.159 30.332 44.7578 29.764 43.0092 29.764L43.0052 29.768ZM30.2815 28.482C30.8958 28.482 31.478 28.238 31.9237 27.794C32.3814 27.338 32.6364 26.75 32.6404 26.138C32.6444 25.528 32.4015 24.946 31.9578 24.504C31.5121 24.044 30.9199 23.792 30.2855 23.792C29.6512 23.792 29.059 24.046 28.6173 24.502C27.6918 25.424 27.6898 26.838 28.6193 27.798C29.079 28.24 29.6692 28.482 30.2815 28.482ZM31.3134 30.168H27.9909C27.8805 30.168 27.7862 30.246 27.7681 30.354L25.0439 45.682C25.0319 45.748 25.0499 45.816 25.0941 45.866C25.1383 45.918 25.2005 45.946 25.2687 45.946H28.5912C28.7016 45.946 28.796 45.868 28.814 45.76L31.5382 30.432C31.5503 30.366 31.5322 30.298 31.4881 30.248C31.4439 30.196 31.3817 30.168 31.3134 30.168ZM69.2335 29.77C67.0815 29.77 65.349 30.496 64.0762 31.93V24.262C64.0762 24.136 63.9738 24.036 63.8493 24.036H60.5249C60.3984 24.036 60.298 24.138 60.298 24.262V45.722C60.298 45.848 60.4004 45.948 60.5249 45.948H63.8493C63.9758 45.948 64.0762 45.846 64.0762 45.722V44.164C65.3429 45.612 67.0754 46.346 69.2335 46.346C71.3916 46.346 73.2566 45.562 74.8144 43.946C76.3462 42.358 77.1231 40.376 77.1231 38.056C77.1231 35.736 76.3462 33.756 74.8144 32.166C73.2566 30.552 71.4318 29.766 69.2335 29.766V29.77ZM72.028 41.426C71.1527 42.298 70.0365 42.74 68.7116 42.74C67.3866 42.74 66.2684 42.298 65.3972 41.43C64.5078 40.516 64.0762 39.414 64.0762 38.062C64.0762 36.71 64.5199 35.598 65.3972 34.724C66.2624 33.834 67.3766 33.382 68.7116 33.382C70.0466 33.382 71.1608 33.834 72.028 34.726C72.9033 35.598 73.3469 36.72 73.3469 38.062C73.3469 39.404 72.9153 40.516 72.028 41.428V41.426ZM95.3615 30.17H92.039C91.9125 30.17 91.8122 30.272 91.8122 30.396V31.93C90.5394 30.496 88.8069 29.77 86.6548 29.77C84.5028 29.77 82.6318 30.554 81.0759 32.17C79.5422 33.76 78.7653 35.74 78.7653 38.06C78.7653 40.38 79.5422 42.36 81.0759 43.95C82.6338 45.564 84.4586 46.35 86.6548 46.35C88.8511 46.35 90.5454 45.616 91.8122 44.168V45.726C91.8122 45.852 91.9146 45.952 92.039 45.952H95.3615C95.4879 45.952 95.5883 45.85 95.5883 45.726V30.394C95.5883 30.268 95.4859 30.168 95.3615 30.168V30.17ZM90.4932 41.426C89.6179 42.298 88.5018 42.74 87.1768 42.74C85.8518 42.74 84.7336 42.298 83.8624 41.43C82.973 40.516 82.5414 39.414 82.5414 38.062C82.5414 36.71 82.9851 35.598 83.8624 34.724C84.7276 33.834 85.8418 33.382 87.1768 33.382C88.5118 33.382 89.626 33.834 90.4932 34.726C91.3685 35.598 91.8122 36.72 91.8122 38.062C91.8122 39.404 91.3806 40.516 90.4932 41.428V41.426ZM106.865 29.77C104.909 29.77 103.384 30.408 102.322 31.67V30.396C102.322 30.27 102.219 30.17 102.095 30.17H98.7723C98.6458 30.17 98.5454 30.272 98.5454 30.396V45.724C98.5454 45.85 98.6478 45.95 98.7723 45.95H102.095C102.221 45.95 102.322 45.848 102.322 45.724V37.508C102.322 34.808 103.628 33.32 106.003 33.32C108.049 33.32 109.223 34.534 109.223 36.65V45.724C109.223 45.85 109.326 45.95 109.45 45.95H112.775C112.901 45.95 113.002 45.848 113.002 45.724V36.312C113.002 32.338 110.593 29.77 106.867 29.77H106.865ZM36.0752 16C28.1656 16 23.476 17.31 20.3945 20.378C17.3129 23.448 16 28.118 16 36C16 43.882 17.3149 48.552 20.3945 51.622C23.476 54.692 28.1636 56 36.0752 56C43.9869 56 48.6745 54.69 51.756 51.622C54.8376 48.554 56.1505 43.882 56.1505 36C56.1505 28.118 54.8356 23.448 51.756 20.378C48.6745 17.31 43.9869 16 36.0752 16ZM49.084 48.96C46.8095 51.226 42.7984 52.236 36.0752 52.236C29.352 52.236 25.341 51.226 23.0665 48.96C20.792 46.694 19.7782 42.698 19.7782 36C19.7782 29.302 20.792 25.306 23.0665 23.04C25.341 20.774 29.352 19.764 36.0752 19.764C42.7984 19.764 46.8095 20.774 49.084 23.04C51.3585 25.306 52.3723 29.302 52.3723 36C52.3723 42.698 51.3585 46.694 49.084 48.96ZM129.69 45.572L122.81 37.906L129.445 30.546C129.505 30.48 129.52 30.384 129.483 30.302C129.447 30.22 129.365 30.168 129.277 30.168H125.215C125.149 30.168 125.087 30.196 125.045 30.246L119.472 36.57V24.262C119.472 24.136 119.369 24.036 119.245 24.036H115.923C115.796 24.036 115.696 24.138 115.696 24.262V45.722C115.696 45.848 115.798 45.948 115.923 45.948H119.245C119.371 45.948 119.472 45.846 119.472 45.722V39.236L125.384 45.872C125.426 45.92 125.488 45.948 125.555 45.948H129.524C129.614 45.948 129.694 45.896 129.73 45.814C129.766 45.732 129.752 45.638 129.692 45.57L129.69 45.572Z" fill="#21093A"/>
</svg>
